<?xml version="1.0" encoding="UTF-8" standalone="no"?>
<!DOCTYPE svg PUBLIC "-//W3C//DTD SVG 1.1//EN"
 "http://www.w3.org/Graphics/SVG/1.1/DTD/svg11.dtd">
<!-- Generated by graphviz version 2.40.1 (20161225.0304)
 -->
<!-- Title: snakemake_dag Pages: 1 -->
<svg width="593pt" height="474pt"
 viewBox="0.00 0.00 593.11 474.00" xmlns="http://www.w3.org/2000/svg" xmlns:xlink="http://www.w3.org/1999/xlink">
<g id="graph0" class="graph" transform="scale(1 1) rotate(0) translate(4 470)">
<title>snakemake_dag</title>
<polygon fill="#ffffff" stroke="transparent" points="-4,4 -4,-470 589.1084,-470 589.1084,4 -4,4"/>
<!-- 1 -->
<g id="node1" class="node">
<title>1</title>
<path fill="none" stroke="#56d882" stroke-width="2" d="M110.3664,-380C110.3664,-380 12.2107,-380 12.2107,-380 6.2107,-380 .2107,-374 .2107,-368 .2107,-368 .2107,-356 .2107,-356 .2107,-350 6.2107,-344 12.2107,-344 12.2107,-344 110.3664,-344 110.3664,-344 116.3664,-344 122.3664,-350 122.3664,-356 122.3664,-356 122.3664,-368 122.3664,-368 122.3664,-374 116.3664,-380 110.3664,-380"/>
<text text-anchor="middle" x="61.2886" y="-359" font-family="sans" font-size="10.00" fill="#000000">add_to_snpeff_config: 1</text>
</g>
<!-- 2 -->
<g id="node2" class="node">
<title>2</title>
<path fill="none" stroke="#80d856" stroke-width="2" d="M224.4384,-208C224.4384,-208 92.1388,-208 92.1388,-208 86.1388,-208 80.1388,-202 80.1388,-196 80.1388,-196 80.1388,-184 80.1388,-184 80.1388,-178 86.1388,-172 92.1388,-172 92.1388,-172 224.4384,-172 224.4384,-172 230.4384,-172 236.4384,-178 236.4384,-184 236.4384,-184 236.4384,-196 236.4384,-196 236.4384,-202 230.4384,-208 224.4384,-208"/>
<text text-anchor="middle" x="158.2886" y="-187" font-family="sans" font-size="10.00" fill="#000000">annotate_each_chromosome: 7</text>
</g>
<!-- 1&#45;&gt;2 -->
<g id="edge1" class="edge">
<title>1&#45;&gt;2</title>
<path fill="none" stroke="#c0c0c0" stroke-width="2" d="M60.5764,-343.8436C60.5148,-322.0565 62.9924,-285.0805 78.2886,-258 88.1219,-240.591 104.2154,-225.6166 119.3993,-214.1866"/>
<polygon fill="#c0c0c0" stroke="#c0c0c0" stroke-width="2" points="121.6288,-216.8941 127.6957,-208.2083 117.5364,-211.215 121.6288,-216.8941"/>
<text text-anchor="middle" x="81.7886" y="-271.8" font-family="Times,serif" font-size="14.00" fill="#000000">7</text>
</g>
<!-- 3 -->
<g id="node3" class="node">
<title>3</title>
<path fill="none" stroke="#56a9d8" stroke-width="2" d="M209.8713,-294C209.8713,-294 106.7059,-294 106.7059,-294 100.7059,-294 94.7059,-288 94.7059,-282 94.7059,-282 94.7059,-270 94.7059,-270 94.7059,-264 100.7059,-258 106.7059,-258 106.7059,-258 209.8713,-258 209.8713,-258 215.8713,-258 221.8713,-264 221.8713,-270 221.8713,-270 221.8713,-282 221.8713,-282 221.8713,-288 215.8713,-294 209.8713,-294"/>
<text text-anchor="middle" x="158.2886" y="-273" font-family="sans" font-size="10.00" fill="#000000">build_snpeff_database: 1</text>
</g>
<!-- 1&#45;&gt;3 -->
<g id="edge2" class="edge">
<title>1&#45;&gt;3</title>
<path fill="none" stroke="#c0c0c0" stroke-width="2" d="M81.8598,-343.7616C95.8775,-331.3335 114.6171,-314.719 130.0318,-301.0524"/>
<polygon fill="#c0c0c0" stroke="#c0c0c0" stroke-width="2" points="132.5863,-303.4651 137.747,-294.2121 127.9425,-298.2273 132.5863,-303.4651"/>
<text text-anchor="middle" x="119.7886" y="-314.8" font-family="Times,serif" font-size="14.00" fill="#000000">1</text>
</g>
<!-- 4 -->
<g id="node4" class="node">
<title>4</title>
<path fill="none" stroke="#d6d856" stroke-width="2" d="M211.9238,-122C211.9238,-122 104.6533,-122 104.6533,-122 98.6533,-122 92.6533,-116 92.6533,-110 92.6533,-110 92.6533,-98 92.6533,-98 92.6533,-92 98.6533,-86 104.6533,-86 104.6533,-86 211.9238,-86 211.9238,-86 217.9238,-86 223.9238,-92 223.9238,-98 223.9238,-98 223.9238,-110 223.9238,-110 223.9238,-116 217.9238,-122 211.9238,-122"/>
<text text-anchor="middle" x="158.2886" y="-101" font-family="sans" font-size="10.00" fill="#000000">catenate_anno_chroms: 1</text>
</g>
<!-- 2&#45;&gt;4 -->
<g id="edge3" class="edge">
<title>2&#45;&gt;4</title>
<path fill="none" stroke="#c0c0c0" stroke-width="2" d="M158.2886,-171.7616C158.2886,-160.3597 158.2886,-145.4342 158.2886,-132.494"/>
<polygon fill="#c0c0c0" stroke="#c0c0c0" stroke-width="2" points="161.7887,-132.2121 158.2886,-122.2121 154.7887,-132.2121 161.7887,-132.2121"/>
<text text-anchor="middle" x="161.7886" y="-142.8" font-family="Times,serif" font-size="14.00" fill="#000000">7</text>
</g>
<!-- 3&#45;&gt;2 -->
<g id="edge4" class="edge">
<title>3&#45;&gt;2</title>
<path fill="none" stroke="#c0c0c0" stroke-width="2" d="M158.2886,-257.7616C158.2886,-246.3597 158.2886,-231.4342 158.2886,-218.494"/>
<polygon fill="#c0c0c0" stroke="#c0c0c0" stroke-width="2" points="161.7887,-218.2121 158.2886,-208.2121 154.7887,-218.2121 161.7887,-218.2121"/>
<text text-anchor="middle" x="161.7886" y="-228.8" font-family="Times,serif" font-size="14.00" fill="#000000">7</text>
</g>
<!-- 12 -->
<g id="node12" class="node">
<title>12</title>
<path fill="none" stroke="#56d8d8" stroke-width="2" d="M173.2886,-36C173.2886,-36 143.2886,-36 143.2886,-36 137.2886,-36 131.2886,-30 131.2886,-24 131.2886,-24 131.2886,-12 131.2886,-12 131.2886,-6 137.2886,0 143.2886,0 143.2886,0 173.2886,0 173.2886,0 179.2886,0 185.2886,-6 185.2886,-12 185.2886,-12 185.2886,-24 185.2886,-24 185.2886,-30 179.2886,-36 173.2886,-36"/>
<text text-anchor="middle" x="158.2886" y="-15" font-family="sans" font-size="10.00" fill="#000000">all: 1</text>
</g>
<!-- 4&#45;&gt;12 -->
<g id="edge5" class="edge">
<title>4&#45;&gt;12</title>
<path fill="none" stroke="#c0c0c0" stroke-width="2" d="M158.2886,-85.7616C158.2886,-74.3597 158.2886,-59.4342 158.2886,-46.494"/>
<polygon fill="#c0c0c0" stroke="#c0c0c0" stroke-width="2" points="161.7887,-46.2121 158.2886,-36.2121 154.7887,-46.2121 161.7887,-46.2121"/>
<text text-anchor="middle" x="161.7886" y="-56.8" font-family="Times,serif" font-size="14.00" fill="#000000">1</text>
</g>
<!-- 5 -->
<g id="node5" class="node">
<title>5</title>
<path fill="none" stroke="#d88556" stroke-width="2" d="M453.441,-380C453.441,-380 385.1361,-380 385.1361,-380 379.1361,-380 373.1361,-374 373.1361,-368 373.1361,-368 373.1361,-356 373.1361,-356 373.1361,-350 379.1361,-344 385.1361,-344 385.1361,-344 453.441,-344 453.441,-344 459.441,-344 465.441,-350 465.441,-356 465.441,-356 465.441,-368 465.441,-368 465.441,-374 459.441,-380 453.441,-380"/>
<text text-anchor="middle" x="419.2886" y="-359" font-family="sans" font-size="10.00" fill="#000000">convert_to_vcf: 7</text>
</g>
<!-- 10 -->
<g id="node10" class="node">
<title>10</title>
<path fill="none" stroke="#d8ac56" stroke-width="2" d="M356.6682,-294C356.6682,-294 285.9089,-294 285.9089,-294 279.9089,-294 273.9089,-288 273.9089,-282 273.9089,-282 273.9089,-270 273.9089,-270 273.9089,-264 279.9089,-258 285.9089,-258 285.9089,-258 356.6682,-258 356.6682,-258 362.6682,-258 368.6682,-264 368.6682,-270 368.6682,-270 368.6682,-282 368.6682,-282 368.6682,-288 362.6682,-294 356.6682,-294"/>
<text text-anchor="middle" x="321.2886" y="-273" font-family="sans" font-size="10.00" fill="#000000">headerize_vcfs: 7</text>
</g>
<!-- 5&#45;&gt;10 -->
<g id="edge6" class="edge">
<title>5&#45;&gt;10</title>
<path fill="none" stroke="#c0c0c0" stroke-width="2" d="M398.5053,-343.7616C384.343,-331.3335 365.4103,-314.719 349.8366,-301.0524"/>
<polygon fill="#c0c0c0" stroke="#c0c0c0" stroke-width="2" points="351.8668,-298.1773 342.0419,-294.2121 347.2496,-303.4387 351.8668,-298.1773"/>
<text text-anchor="middle" x="378.7886" y="-314.8" font-family="Times,serif" font-size="14.00" fill="#000000">7</text>
</g>
<!-- 6 -->
<g id="node6" class="node">
<title>6</title>
<path fill="none" stroke="#afd856" stroke-width="2" d="M221.9191,-466C221.9191,-466 134.6581,-466 134.6581,-466 128.6581,-466 122.6581,-460 122.6581,-454 122.6581,-454 122.6581,-442 122.6581,-442 122.6581,-436 128.6581,-430 134.6581,-430 134.6581,-430 221.9191,-430 221.9191,-430 227.9191,-430 233.9191,-436 233.9191,-442 233.9191,-442 233.9191,-454 233.9191,-454 233.9191,-460 227.9191,-466 221.9191,-466"/>
<text text-anchor="middle" x="178.2886" y="-445" font-family="sans" font-size="10.00" fill="#000000">download_genome: 1</text>
</g>
<!-- 6&#45;&gt;3 -->
<g id="edge7" class="edge">
<title>6&#45;&gt;3</title>
<path fill="none" stroke="#c0c0c0" stroke-width="2" d="M174.9808,-429.8693C172.5784,-416.2005 169.3927,-396.9715 167.2886,-380 164.1176,-354.4229 161.6923,-325.1689 160.1628,-304.216"/>
<polygon fill="#c0c0c0" stroke="#c0c0c0" stroke-width="2" points="163.6427,-303.807 159.4454,-294.0791 156.6601,-304.3012 163.6427,-303.807"/>
<text text-anchor="middle" x="170.7886" y="-357.8" font-family="Times,serif" font-size="14.00" fill="#000000">1</text>
</g>
<!-- 11 -->
<g id="node11" class="node">
<title>11</title>
<path fill="none" stroke="#56d8a9" stroke-width="2" d="M342.9836,-380C342.9836,-380 299.5936,-380 299.5936,-380 293.5936,-380 287.5936,-374 287.5936,-368 287.5936,-368 287.5936,-356 287.5936,-356 287.5936,-350 293.5936,-344 299.5936,-344 299.5936,-344 342.9836,-344 342.9836,-344 348.9836,-344 354.9836,-350 354.9836,-356 354.9836,-356 354.9836,-368 354.9836,-368 354.9836,-374 348.9836,-380 342.9836,-380"/>
<text text-anchor="middle" x="321.2886" y="-359" font-family="sans" font-size="10.00" fill="#000000">make_fai: 1</text>
</g>
<!-- 6&#45;&gt;11 -->
<g id="edge8" class="edge">
<title>6&#45;&gt;11</title>
<path fill="none" stroke="#c0c0c0" stroke-width="2" d="M208.2661,-429.9716C229.9072,-416.9566 259.3148,-399.271 282.7081,-385.2023"/>
<polygon fill="#c0c0c0" stroke="#c0c0c0" stroke-width="2" points="284.5847,-388.1579 291.3506,-380.0047 280.9771,-382.1591 284.5847,-388.1579"/>
<text text-anchor="middle" x="261.7886" y="-400.8" font-family="Times,serif" font-size="14.00" fill="#000000">1</text>
</g>
<!-- 7 -->
<g id="node7" class="node">
<title>7</title>
<path fill="none" stroke="#5682d8" stroke-width="2" d="M433.396,-466C433.396,-466 301.1811,-466 301.1811,-466 295.1811,-466 289.1811,-460 289.1811,-454 289.1811,-454 289.1811,-442 289.1811,-442 289.1811,-436 295.1811,-430 301.1811,-430 301.1811,-430 433.396,-430 433.396,-430 439.396,-430 445.396,-436 445.396,-442 445.396,-442 445.396,-454 445.396,-454 445.396,-460 439.396,-466 433.396,-466"/>
<text text-anchor="middle" x="367.2886" y="-445" font-family="sans" font-size="10.00" fill="#000000">download_genotype_readme: 1</text>
</g>
<!-- 7&#45;&gt;5 -->
<g id="edge9" class="edge">
<title>7&#45;&gt;5</title>
<path fill="none" stroke="#c0c0c0" stroke-width="2" d="M378.3164,-429.7616C385.4864,-417.9036 394.9607,-402.2345 402.9926,-388.951"/>
<polygon fill="#c0c0c0" stroke="#c0c0c0" stroke-width="2" points="406.0974,-390.5804 408.2766,-380.2121 400.1073,-386.9584 406.0974,-390.5804"/>
<text text-anchor="middle" x="399.7886" y="-400.8" font-family="Times,serif" font-size="14.00" fill="#000000">7</text>
</g>
<!-- 8 -->
<g id="node8" class="node">
<title>8</title>
<path fill="none" stroke="#59d856" stroke-width="2" d="M572.9288,-466C572.9288,-466 475.6484,-466 475.6484,-466 469.6484,-466 463.6484,-460 463.6484,-454 463.6484,-454 463.6484,-442 463.6484,-442 463.6484,-436 469.6484,-430 475.6484,-430 475.6484,-430 572.9288,-430 572.9288,-430 578.9288,-430 584.9288,-436 584.9288,-442 584.9288,-442 584.9288,-454 584.9288,-454 584.9288,-460 578.9288,-466 572.9288,-466"/>
<text text-anchor="middle" x="524.2886" y="-450" font-family="sans" font-size="10.00" fill="#000000">download_genotypes: 7</text>
<text text-anchor="middle" x="524.2886" y="-440" font-family="sans" font-size="10.00" fill="#000000">[chrom]</text>
</g>
<!-- 8&#45;&gt;5 -->
<g id="edge10" class="edge">
<title>8&#45;&gt;5</title>
<path fill="none" stroke="#c0c0c0" stroke-width="2" d="M502.2771,-429.9716C486.8768,-417.358 466.1201,-400.3573 449.2183,-386.5139"/>
<polygon fill="#c0c0c0" stroke="#c0c0c0" stroke-width="2" points="451.2251,-383.6334 441.271,-380.0047 446.7896,-389.0488 451.2251,-383.6334"/>
<text text-anchor="middle" x="480.7886" y="-400.8" font-family="Times,serif" font-size="14.00" fill="#000000">7</text>
</g>
<!-- 9 -->
<g id="node9" class="node">
<title>9</title>
<path fill="none" stroke="#d85656" stroke-width="2" d="M257.7242,-380C257.7242,-380 194.8529,-380 194.8529,-380 188.8529,-380 182.8529,-374 182.8529,-368 182.8529,-368 182.8529,-356 182.8529,-356 182.8529,-350 188.8529,-344 194.8529,-344 194.8529,-344 257.7242,-344 257.7242,-344 263.7242,-344 269.7242,-350 269.7242,-356 269.7242,-356 269.7242,-368 269.7242,-368 269.7242,-374 263.7242,-380 257.7242,-380"/>
<text text-anchor="middle" x="226.2886" y="-359" font-family="sans" font-size="10.00" fill="#000000">download_gff: 1</text>
</g>
<!-- 9&#45;&gt;3 -->
<g id="edge11" class="edge">
<title>9&#45;&gt;3</title>
<path fill="none" stroke="#c0c0c0" stroke-width="2" d="M211.8675,-343.7616C202.3111,-331.6756 189.6243,-315.6304 178.9949,-302.1874"/>
<polygon fill="#c0c0c0" stroke="#c0c0c0" stroke-width="2" points="181.6367,-299.8854 172.6888,-294.2121 176.1458,-304.2271 181.6367,-299.8854"/>
<text text-anchor="middle" x="200.7886" y="-314.8" font-family="Times,serif" font-size="14.00" fill="#000000">1</text>
</g>
<!-- 10&#45;&gt;2 -->
<g id="edge12" class="edge">
<title>10&#45;&gt;2</title>
<path fill="none" stroke="#c0c0c0" stroke-width="2" d="M287.1184,-257.9716C262.2332,-244.842 228.3387,-226.959 201.5618,-212.8313"/>
<polygon fill="#c0c0c0" stroke="#c0c0c0" stroke-width="2" points="202.8915,-209.5756 192.4137,-208.0047 199.6249,-215.7667 202.8915,-209.5756"/>
<text text-anchor="middle" x="252.7886" y="-228.8" font-family="Times,serif" font-size="14.00" fill="#000000">7</text>
</g>
<!-- 11&#45;&gt;10 -->
<g id="edge13" class="edge">
<title>11&#45;&gt;10</title>
<path fill="none" stroke="#c0c0c0" stroke-width="2" d="M321.2886,-343.7616C321.2886,-332.3597 321.2886,-317.4342 321.2886,-304.494"/>
<polygon fill="#c0c0c0" stroke="#c0c0c0" stroke-width="2" points="324.7887,-304.2121 321.2886,-294.2121 317.7887,-304.2121 324.7887,-304.2121"/>
<text text-anchor="middle" x="324.7886" y="-314.8" font-family="Times,serif" font-size="14.00" fill="#000000">7</text>
</g>
</g>
</svg>
